<svg width="456" height="394" viewBox="0 0 456 394" fill="none" xmlns="http://www.w3.org/2000/svg">
  <style>
    @media (prefers-color-scheme: dark) {
        .bg {
          fill: #fff;
        }
        .logo {
          fill: #5490F9;
        }
    }
  </style>

  <rect width="456" height="394" fill="#031E4C" class="bg"/>
  <path d="M341.75 310.751V226.274C341.74 218.839 338.337 216.588 333.624 211.394L323.487 199.875L271.327 140.357L238.098 102.439L230.596 93.8086C229.31 92.3591 228.119 90.8327 226.094 92.1383L217.881 100.999L198.159 123.078L139.121 189.315L120.277 210.434C115.895 215.484 113.288 216.261 113.279 223.394V269.472V322.75C113.264 332.225 108.378 340.433 97.9195 340.01C88.675 339.636 84.0144 332.892 84 324.19V252.673V212.834C84.096 204.963 87.6623 202.016 92.4381 196.515L111.282 175.396L159.439 121.158L191.237 85.6393L205.358 69.7999L213.115 61.1603C217.824 56.3989 220.862 52.8422 227.994 53.0054C234.455 53.1542 237.671 56.8692 241.914 61.1603L250.688 71.2399L264.607 87.0793L343.694 177.316L360.124 196.035C366.407 203.201 371.014 206.46 371.029 216.674V310.751V320.83C371.029 329.163 370.573 336.478 360.949 339.189C358.372 339.919 356.869 340.025 354.229 340.029H200.155H174.716C169.787 340.029 164.675 340.457 160.317 337.644C154.97 334.202 153.607 327.727 153.597 321.79V239.233C153.727 228.314 158.829 222.453 169.917 222.434H269.753H281.752C283.84 222.434 288.602 222.295 290.392 222.684C295.979 223.893 299.416 228.059 300.635 233.474C301.216 236.061 301.427 238.029 301.432 240.673V264.192C301.432 269.463 301.667 274.829 298.864 279.552C293.502 288.575 278.599 288.479 273.655 279.072C271.49 274.944 271.673 271.061 271.673 266.592V251.233H183.356V310.751H341.75Z" fill="white" class="logo"/>
</svg>
