<svg xmlns="http://www.w3.org/2000/svg" width="201.92" height="194.88" viewBox="0 0 151.44 146.16">
    <path fill="#fff" stroke="#000"
        d="M59.16 109.08h57.6c1.956-.036 1.918-.667 1.92-2.4V77.16c-.002-.65.038-1.308-.223-1.92-.519-1.2-42.003-48.237-42.516-48.393-1.013-.308-40.37 44.212-40.37 44.212-1.834 2.167-2.806 2.41-2.81 5.381v37.2c-.003 1.937-.27 3.533-1.787 4.913-1.406 1.279-4.468 1.473-6.124.607-.692-.36-1.383-1.042-1.817-1.682-.763-1.133-.83-2.753-.833-4.078V72.6c.043-3.492 1.697-4.45 3.835-6.84l44.163-49.697c1.735-1.896 2.875-3.554 5.762-3.338 3.034.223 4.075 2.06 5.9 4.186l42.62 48.73c2.76 3.061 4.753 4.211 4.76 8.64v39.359c-.02 3.756-1.613 5.993-5.52 6H53.64c-1.985-.01-3.269-.391-4.402-2.162-1.18-1.848-.64-3.048-.638-5.038V90.12l-.132-9.64c.286-3.123 2.592-4.275 5.412-4.28h42c2.815 0 5.628-.182 6.74 3.12.251.746.218 1.39.22 2.16v12.96c-.012 2.206-.998 4.409-3.36 4.992-.542.077-1.798.055-2.4 0-1.018.034-1.531-.014-2.398-.624-1.924-1.356-2.16-2.909-2.162-5.088-.005-2.424.245-4.87-.48-7.183H61.32l-2.016.578-.384 2.045v16.08l.24 3.84z" />
</svg>
