<svg width="26" height="26" fill="none" xmlns="http://www.w3.org/2000/svg">
  <path d="M13 26c7.18 0 13-5.82 13-13S20.18 0 13 0 0 5.82 0 13s5.82 13 13 13z" fill="#F0F0F0" />
  <path
    d="M13 0C7.846 0 3.393 3 1.29 7.348h23.42C22.607 2.999 18.154 0 13 0zm0 26c5.154 0 9.607-3 11.71-7.348H1.29C3.393 23.001 7.846 26 13 26z"
    fill="#338AF3" />
  <path
    d="M16.886 13l-1.588.747.845 1.537-1.724-.33-.218 1.742L13 15.416l-1.2 1.28-.22-1.741-1.723.33.845-1.538L9.114 13l1.588-.747-.845-1.537 1.724.33.218-1.742L13 10.584l1.2-1.28.22 1.741 1.723-.33-.845 1.538 1.588.747z"
    fill="#FFDA44" />
</svg>
