<svg width="26" height="26" fill="none" xmlns="http://www.w3.org/2000/svg">
  <path d="M13 26c7.18 0 13-5.82 13-13S20.18 0 13 0 0 5.82 0 13s5.82 13 13 13z" fill="#6DA544" />
  <path d="M13 5.087L23.74 13 13 20.913 2.26 13 13 5.087z" fill="#FFDA44" />
  <path d="M13 17.522a4.522 4.522 0 100-9.044 4.522 4.522 0 000 9.044z" fill="#F0F0F0" />
  <path
    d="M10.74 12.717a7.6 7.6 0 00-2.26.342 4.521 4.521 0 008.223 2.535 7.62 7.62 0 00-5.964-2.877zm6.698 1.149a4.522 4.522 0 00-8.593-2.651 9.328 9.328 0 018.593 2.651z"
    fill="#0052B4" />
</svg>
