<svg width="37" height="37" viewBox="0 0 37 37" fill="none" xmlns="http://www.w3.org/2000/svg">
<path d="M28.9731 21.4602L23.3481 18.6477C23.1267 18.5373 22.8801 18.4873 22.6332 18.5028C22.3863 18.5182 22.1478 18.5985 21.9419 18.7355L19.3597 20.4582C18.1743 19.8066 17.1988 18.8311 16.5472 17.6457L18.2698 15.0635C18.4069 14.8575 18.4871 14.6191 18.5026 14.3722C18.518 14.1252 18.468 13.8786 18.3577 13.6572L15.5452 8.03223C15.4286 7.7968 15.2484 7.59874 15.0251 7.46049C14.8017 7.32224 14.544 7.24932 14.2813 7.25C12.4165 7.25 10.6281 7.99079 9.30949 9.30941C7.99087 10.628 7.25008 12.4164 7.25008 14.2812C7.25474 18.3824 8.88597 22.3142 11.7859 25.2142C14.6859 28.1141 18.6177 29.7453 22.7188 29.75C23.6422 29.75 24.5565 29.5681 25.4096 29.2148C26.2626 28.8614 27.0378 28.3435 27.6907 27.6906C28.3436 27.0377 28.8615 26.2626 29.2149 25.4095C29.5682 24.5564 29.7501 23.6421 29.7501 22.7188C29.7503 22.4575 29.6777 22.2014 29.5404 21.9791C29.4032 21.7567 29.2068 21.5771 28.9731 21.4602ZM22.7188 26.9375C19.3633 26.9338 16.1463 25.5992 13.7736 23.2265C11.4009 20.8538 10.0663 17.6368 10.0626 14.2812C10.0623 13.3059 10.4 12.3605 11.0182 11.6061C11.6365 10.8517 12.497 10.3348 13.4534 10.1434L15.4714 14.1863L13.754 16.7422C13.6257 16.9347 13.5468 17.1559 13.5244 17.3862C13.502 17.6164 13.5368 17.8487 13.6257 18.0623C14.6318 20.4536 16.5342 22.356 18.9255 23.3621C19.1397 23.4549 19.3737 23.4929 19.6064 23.4726C19.839 23.4524 20.0629 23.3745 20.2579 23.2461L22.8261 21.534L26.869 23.552C26.6761 24.5095 26.157 25.3704 25.4001 25.9878C24.6432 26.6052 23.6956 26.9409 22.7188 26.9375ZM18.5001 0.21875C15.3439 0.218062 12.2412 1.03453 9.4942 2.58868C6.74715 4.14284 4.44927 6.38173 2.82421 9.08744C1.19916 11.7932 0.302298 14.8735 0.220922 18.0287C0.139547 21.1838 0.876431 24.3063 2.35985 27.0922L0.364732 33.0775C0.199471 33.5731 0.175488 34.1049 0.295471 34.6133C0.415454 35.1217 0.674662 35.5867 1.04404 35.956C1.41342 36.3254 1.87838 36.5846 2.38679 36.7046C2.89521 36.8246 3.42699 36.8006 3.92255 36.6354L9.9079 34.6402C12.3596 35.9443 15.0762 36.6726 17.8515 36.77C20.6268 36.8674 23.3877 36.3312 25.9248 35.2023C28.462 34.0733 30.7085 32.3811 32.494 30.2543C34.2795 28.1274 35.5571 25.6218 36.2296 22.9275C36.9021 20.2332 36.952 17.4211 36.3755 14.7046C35.799 11.9881 34.6112 9.43872 32.9022 7.24985C31.1933 5.06099 29.0082 3.29021 26.5127 2.07193C24.0173 0.853652 21.2771 0.219889 18.5001 0.21875ZM18.5001 33.9688C15.7807 33.9706 13.109 33.2545 10.7552 31.8928C10.5828 31.7928 10.3912 31.7306 10.193 31.7103C9.99482 31.69 9.79458 31.7121 9.60555 31.775L3.03133 33.9688L5.22333 27.3945C5.28651 27.2056 5.30884 27.0054 5.28884 26.8073C5.26884 26.6091 5.20697 26.4174 5.10731 26.2449C3.40218 23.2969 2.71758 19.8686 3.15971 16.4918C3.60183 13.115 5.14597 9.97851 7.55258 7.56885C9.95919 5.1592 13.0937 3.6111 16.47 3.16471C19.8462 2.71832 23.2754 3.39859 26.2255 5.09999C29.1757 6.8014 31.4819 9.42882 32.7865 12.5747C34.091 15.7205 34.3209 19.209 33.4405 22.4988C32.5601 25.7887 30.6186 28.696 27.9173 30.7699C25.2159 32.8438 21.9057 33.9682 18.5001 33.9688Z" fill="#FDFDFD"/>
</svg>
