<svg width="18" height="19" viewBox="0 0 18 19" fill="none" xmlns="http://www.w3.org/2000/svg">
<g clip-path="url(#clip0_14_43)">
<path d="M17.3944 8.25613L9.37864 0.240373C9.30628 0.164324 9.21922 0.103775 9.12274 0.0624022C9.02626 0.021029 8.92238 -0.000305176 8.8174 -0.000305176C8.71243 -0.000305176 8.60855 0.021029 8.51207 0.0624022C8.41559 0.103775 8.32853 0.164324 8.25616 0.240373L0.240403 8.25613C0.164355 8.3285 0.103806 8.41556 0.0624327 8.51204C0.0210595 8.60852 -0.000274658 8.7124 -0.000274658 8.81737C-0.000274658 8.92235 0.0210595 9.02623 0.0624327 9.12271C0.103806 9.21919 0.164355 9.30625 0.240403 9.37861C0.312767 9.45466 0.399831 9.51521 0.496309 9.55658C0.592788 9.59796 0.696668 9.61929 0.801643 9.61929C0.906619 9.61929 1.0105 9.59796 1.10698 9.55658C1.20346 9.51521 1.29052 9.45466 1.36288 9.37861L8.81704 1.92373L16.2719 9.37861C16.3443 9.45466 16.4314 9.51521 16.5278 9.55658C16.6243 9.59796 16.7282 9.61929 16.8332 9.61929C16.9381 9.61929 17.042 9.59796 17.1385 9.55658C17.235 9.51521 17.322 9.45466 17.3944 9.37861C17.4705 9.30625 17.531 9.21919 17.5724 9.12271C17.6137 9.02623 17.6351 8.92235 17.6351 8.81737C17.6351 8.7124 17.6137 8.60852 17.5724 8.51204C17.531 8.41556 17.4705 8.3285 17.3944 8.25613Z" fill="#53586E"/>
<path d="M15.2294 10.4205H14.1869L12.8246 6.89325C12.6641 6.57285 12.4236 6.41229 12.1032 6.41229H5.69016C5.36976 6.41229 5.04936 6.57285 4.96872 6.89325L3.6072 10.4205H2.4048C1.92384 10.4205 1.60344 10.7409 1.60344 11.2219V15.2301C1.60344 15.7111 1.92384 16.0315 2.4048 16.0315H4.00752V16.8329C4.00752 17.3138 4.32864 17.6349 4.8096 17.6349H6.41232C6.89328 17.6349 7.2144 17.3138 7.2144 16.8329V16.0315H10.4206V16.8329C10.4206 17.3138 10.741 17.6349 11.2219 17.6349H12.8254C13.3063 17.6349 13.6267 17.3138 13.6267 16.8329V16.0315H15.2302C15.7111 16.0315 16.0315 15.7111 16.0315 15.2301V11.2219C16.0315 10.7409 15.7104 10.4205 15.2294 10.4205ZM6.17184 8.01573H11.4617L12.4236 10.4205H5.2092L6.17184 8.01573ZM14.4274 14.4281H3.20544V12.024H14.4274V14.4288V14.4281Z" fill="#53586E"/>
</g>
<defs>
<clipPath id="clip0_14_43">
<rect width="24" height="25" fill="white"/>
</clipPath>
</defs>
</svg>
