<svg xmlns="http://www.w3.org/2000/svg" width="24" height="20" viewBox="0 0 24 20" fill="none">
  <path d="M22.4551 4.34437C23.4366 4.74587 23.9664 5.76278 23.9712 6.78208C23.9896 10.5462 23.9992 14.3103 24 18.0744C24.0012 19.6243 22.2269 19.6386 22.2257 18.1354C22.2241 14.4023 22.2237 10.6689 22.2245 6.93504C22.2245 6.39969 22.0707 6.06989 21.583 5.87152C18.474 4.60805 15.3634 3.34897 12.2512 2.09426C11.8897 1.94848 11.5545 2.17671 11.2301 2.30577C8.28053 3.4824 5.33574 4.67139 2.39574 5.87272C2.11224 5.98863 1.77107 6.3268 1.77107 6.60284C1.77427 10.3964 1.77347 14.19 1.76866 17.9836C1.76866 18.3429 1.73583 18.5926 1.67016 18.7329C1.36142 19.3937 0.437618 19.4092 0.114467 18.7699C0.0399863 18.6225 0.00274584 18.3863 0.00274584 18.0613C-0.00045764 14.2916 -0.000858074 10.5219 0.00154453 6.75221C0.00274584 5.46165 0.737944 4.66223 1.88879 4.195C4.68863 3.0574 7.49087 1.92657 10.2955 0.802511C10.9767 0.530061 11.7959 0.0819515 12.4374 0.314968C13.1286 0.565113 13.8141 0.828004 14.4941 1.10364C17.149 2.18149 19.8026 3.26173 22.4551 4.34437Z" fill="#53586E"/>
  <path d="M5.37866 9.17201C5.37465 12.1076 5.37305 15.0424 5.37385 17.9765C5.37385 18.3294 5.33901 18.5835 5.26934 18.7388C4.89333 19.5729 3.60914 19.2778 3.60794 18.3959C3.60313 15.3121 3.60273 12.2283 3.60673 9.14453C3.60794 7.85039 4.21219 7.32102 5.49038 7.32102C9.79025 7.32022 14.0901 7.31983 18.39 7.31983C19.8604 7.31863 20.3926 7.85397 20.3926 9.29868C20.3934 12.2909 20.3926 15.2834 20.3902 18.2764C20.389 19.5574 18.6206 19.6124 18.6218 18.1354C18.6226 15.148 18.6218 12.1602 18.6194 9.17201C18.6194 9.13218 18.5994 9.11226 18.5594 9.11226H5.43872C5.39868 9.11226 5.37866 9.13218 5.37866 9.17201Z" fill="#53586E"/>
  <path d="M16.0726 13.7559C16.8367 14.3031 17.0469 14.9771 17.0565 15.9426C17.0709 17.2794 17.0697 18.137 17.0529 18.5154C17.0108 19.4689 15.3254 19.5992 15.335 18.1485C15.3358 18.0991 15.311 18.0744 15.2605 18.0744H8.70983C8.6996 18.0745 8.68951 18.0768 8.68022 18.081C8.67092 18.0853 8.66265 18.0915 8.65595 18.0991C8.64924 18.1068 8.64426 18.1158 8.64133 18.1256C8.6384 18.1353 8.63759 18.1456 8.63896 18.1557C8.73746 18.8894 8.17525 19.4355 7.46408 19.1642C6.85622 18.9312 6.9271 18.3791 6.91268 17.7052C6.88145 16.2892 6.64359 14.6867 7.92898 13.7343C7.96102 13.7112 7.98224 13.6806 7.99265 13.6423C8.53564 11.7328 8.56688 10.3192 10.9743 10.3084C11.8008 10.3052 12.6273 10.3056 13.4538 10.3096C15.4047 10.3192 15.5885 12.2 16.0066 13.6626C16.0174 13.7005 16.0407 13.7334 16.0726 13.7559ZM9.99162 13.2982L13.9944 13.291C14.002 13.291 14.0093 13.288 14.0148 13.2826C14.0202 13.2772 14.0232 13.2699 14.0232 13.2623V13.2384C14.0229 13.0877 14.0085 12.9386 13.9808 12.7994C13.953 12.6602 13.9125 12.5338 13.8615 12.4274C13.8105 12.321 13.7501 12.2366 13.6836 12.1792C13.6172 12.1217 13.546 12.0922 13.4742 12.0925L10.507 12.0973C10.3621 12.0977 10.2233 12.219 10.1213 12.4343C10.0192 12.6496 9.96223 12.9415 9.96279 13.2456V13.2695C9.96279 13.2771 9.96583 13.2844 9.97124 13.2898C9.97664 13.2952 9.98398 13.2982 9.99162 13.2982ZM8.75308 16.282H15.2401C15.265 16.282 15.2888 16.2722 15.3064 16.2547C15.324 16.2372 15.3338 16.2135 15.3338 16.1888V15.7861C15.3338 15.5994 15.2616 15.4204 15.1329 15.2884C15.0043 15.1564 14.8298 15.0823 14.6479 15.0823H9.34532C9.25524 15.0823 9.16605 15.1005 9.08282 15.1358C8.9996 15.1712 8.92398 15.223 8.86029 15.2884C8.79659 15.3538 8.74606 15.4313 8.71159 15.5167C8.67712 15.6021 8.65938 15.6937 8.65938 15.7861V16.1888C8.65938 16.2135 8.66925 16.2372 8.68682 16.2547C8.70439 16.2722 8.72823 16.282 8.75308 16.282Z" fill="#53586E"/>
</svg>