<svg width="30" height="30" viewBox="0 0 30 30" fill="none" xmlns="http://www.w3.org/2000/svg">
<path d="M14 3.37827C17.7406 3.37827 18.1836 3.39468 19.6547 3.4603C21.0219 3.52046 21.7602 3.75015 22.2523 3.94155C22.9031 4.19312 23.3734 4.49937 23.8602 4.98608C24.3523 5.47827 24.6531 5.94312 24.9047 6.5939C25.0961 7.08608 25.3258 7.82983 25.3859 9.19155C25.4516 10.6681 25.468 11.1111 25.468 14.8462C25.468 18.5869 25.4516 19.0298 25.3859 20.5009C25.3258 21.8681 25.0961 22.6064 24.9047 23.0986C24.6531 23.7494 24.3469 24.2197 23.8602 24.7064C23.368 25.1986 22.9031 25.4994 22.2523 25.7509C21.7602 25.9423 21.0164 26.172 19.6547 26.2322C18.1781 26.2978 17.7352 26.3142 14 26.3142C10.2594 26.3142 9.81641 26.2978 8.34531 26.2322C6.97813 26.172 6.23984 25.9423 5.74766 25.7509C5.09688 25.4994 4.62656 25.1931 4.13984 24.7064C3.64766 24.2142 3.34687 23.7494 3.09531 23.0986C2.90391 22.6064 2.67422 21.8626 2.61406 20.5009C2.54844 19.0244 2.53203 18.5814 2.53203 14.8462C2.53203 11.1056 2.54844 10.6626 2.61406 9.19155C2.67422 7.82436 2.90391 7.08608 3.09531 6.5939C3.34687 5.94312 3.65313 5.4728 4.13984 4.98608C4.63203 4.4939 5.09688 4.19312 5.74766 3.94155C6.23984 3.75015 6.98359 3.52046 8.34531 3.4603C9.81641 3.39468 10.2594 3.37827 14 3.37827ZM14 0.857178C10.1992 0.857178 9.72344 0.873584 8.23047 0.939209C6.74297 1.00483 5.72031 1.24546 4.83437 1.58999C3.91016 1.95093 3.12813 2.42671 2.35156 3.20874C1.56953 3.9853 1.09375 4.76733 0.732812 5.68608C0.388281 6.57749 0.147656 7.59468 0.0820313 9.08218C0.0164063 10.5806 0 11.0564 0 14.8572C0 18.658 0.0164063 19.1337 0.0820313 20.6267C0.147656 22.1142 0.388281 23.1369 0.732812 24.0228C1.09375 24.947 1.56953 25.7291 2.35156 26.5056C3.12813 27.2822 3.91016 27.7634 4.82891 28.1189C5.72031 28.4634 6.7375 28.7041 8.225 28.7697C9.71797 28.8353 10.1937 28.8517 13.9945 28.8517C17.7953 28.8517 18.2711 28.8353 19.7641 28.7697C21.2516 28.7041 22.2742 28.4634 23.1602 28.1189C24.0789 27.7634 24.8609 27.2822 25.6375 26.5056C26.4141 25.7291 26.8953 24.947 27.2508 24.0283C27.5953 23.1369 27.8359 22.1197 27.9016 20.6322C27.9672 19.1392 27.9836 18.6634 27.9836 14.8626C27.9836 11.0619 27.9672 10.5861 27.9016 9.09311C27.8359 7.60561 27.5953 6.58296 27.2508 5.69702C26.9062 4.76733 26.4305 3.9853 25.6484 3.20874C24.8719 2.43218 24.0898 1.95093 23.1711 1.59546C22.2797 1.25093 21.2625 1.0103 19.775 0.944678C18.2766 0.873584 17.8008 0.857178 14 0.857178Z" fill="white"/>
<path d="M13.9918 7.66443C10.0238 7.66443 6.80463 10.8849 6.80463 14.8544C6.80463 18.824 10.0238 22.0444 13.9918 22.0444C17.9598 22.0444 21.179 18.824 21.179 14.8544C21.179 10.8849 17.9598 7.66443 13.9918 7.66443ZM13.9918 19.5184C11.4175 19.5184 9.32971 17.4297 9.32971 14.8544C9.32971 12.2792 11.4175 10.1905 13.9918 10.1905C16.5661 10.1905 18.6539 12.2792 18.6539 14.8544C18.6539 17.4297 16.5661 19.5184 13.9918 19.5184Z" fill="white"/>
<path d="M23.1411 7.38012C23.1411 8.30963 22.3869 9.0587 21.4632 9.0587C20.5341 9.0587 19.7853 8.30416 19.7853 7.38012C19.7853 6.45061 20.5395 5.70154 21.4632 5.70154C22.3869 5.70154 23.1411 6.45608 23.1411 7.38012Z" fill="white"/>
</svg>
