<svg width="1400" height="359" fill="none" xmlns="http://www.w3.org/2000/svg">
  <path
    d="M1073.73 349.712c-1.2 1.227-2.65 2.162-4.35 2.804-1.7.613-3.6.92-5.69.92-2.29 0-4.38-.362-6.28-1.088-1.87-.725-3.47-1.771-4.81-3.138-1.34-1.395-2.38-3.069-3.14-5.022-.72-1.98-1.09-4.212-1.09-6.695 0-2.483.37-4.701 1.09-6.653.76-1.981 1.8-3.655 3.14-5.022 1.34-1.395 2.94-2.455 4.81-3.18 1.9-.753 3.99-1.13 6.28-1.13 2.09 0 3.99.321 5.69.962 1.7.614 3.15 1.535 4.35 2.762l-4.64 4.687a6.008 6.008 0 00-2.26-1.423c-.87-.307-1.8-.46-2.81-.46-1 0-1.95.209-2.84.628-.87.39-1.63.99-2.3 1.799-.67.781-1.2 1.758-1.59 2.929-.37 1.172-.55 2.539-.55 4.101 0 1.562.18 2.929.55 4.101.39 1.172.92 2.162 1.59 2.971.67.781 1.43 1.381 2.3 1.799.89.391 1.84.586 2.84.586 1.01 0 1.94-.153 2.81-.46a6.48 6.48 0 002.26-1.465l4.64 4.687zm19.5 3.264l-1.63-8.327c-.25-1.228-.66-2.065-1.21-2.511-.56-.474-1.45-.711-2.68-.711h-2.14v11.549h-8.07v-31.008h12.43c1.78 0 3.34.251 4.68.754 1.34.474 2.44 1.129 3.31 1.966a7.874 7.874 0 012.01 2.846c.44 1.06.67 2.19.67 3.389 0 .754-.13 1.521-.38 2.302a6.943 6.943 0 01-1.05 2.176 7.68 7.68 0 01-1.67 1.799c-.67.502-1.44.879-2.3 1.13 1.39.307 2.4.893 3.01 1.757.64.837 1.12 1.884 1.42 3.139l2.14 9.75h-8.54zm-.83-21.258c0-.837-.33-1.576-.97-2.217-.64-.67-1.5-1.005-2.59-1.005h-3.27v6.403h3.27c1.09 0 1.95-.307 2.59-.921.64-.642.97-1.395.97-2.26zm13.6 21.258v-31.008h17.82v6.528h-9.75v5.775h9.46v6.528h-9.46v5.649h10.09v6.528H1106zm47.41-3.264c-1.2 1.227-2.65 2.162-4.36 2.804-1.7.613-3.59.92-5.69.92-2.28 0-4.38-.362-6.27-1.088-1.87-.725-3.48-1.771-4.82-3.138-1.33-1.395-2.38-3.069-3.13-5.022-.73-1.98-1.09-4.212-1.09-6.695 0-2.483.36-4.701 1.09-6.653.75-1.981 1.8-3.655 3.13-5.022 1.34-1.395 2.95-2.455 4.82-3.18 1.89-.753 3.99-1.13 6.27-1.13 2.1 0 3.99.321 5.69.962 1.71.614 3.16 1.535 4.36 2.762l-4.65 4.687a5.931 5.931 0 00-2.26-1.423c-.86-.307-1.8-.46-2.8-.46a6.64 6.64 0 00-2.85.628c-.86.39-1.63.99-2.3 1.799-.67.781-1.2 1.758-1.59 2.929-.36 1.172-.54 2.539-.54 4.101 0 1.562.18 2.929.54 4.101.39 1.172.92 2.162 1.59 2.971a7.126 7.126 0 002.3 1.799c.9.391 1.84.586 2.85.586 1 0 1.94-.153 2.8-.46a6.39 6.39 0 002.26-1.465l4.65 4.687zm3.76 3.264v-31.008h8.08v31.008h-8.08zm17.08 1.548h-4.77l8.49-34.104h4.81l-8.53 34.104zm33.05-11.005c0 1.423-.26 2.762-.79 4.017-.53 1.227-1.33 2.288-2.39 3.18-1.03.893-2.31 1.604-3.85 2.134-1.53.503-3.3.754-5.31.754-2.51 0-4.62-.377-6.32-1.13-1.67-.781-3.05-1.702-4.14-2.762l4.68-4.687c.56.558 1.27 1.074 2.14 1.549.89.446 1.99.669 3.3.669.62 0 1.19-.098 1.72-.293.53-.195.98-.446 1.34-.753.39-.307.68-.656.88-1.046.22-.391.33-.781.33-1.172 0-.809-.35-1.451-1.04-1.925-.67-.474-1.52-.906-2.56-1.297-1-.391-2.1-.795-3.3-1.213a15.92 15.92 0 01-3.31-1.632 9.468 9.468 0 01-2.55-2.679c-.67-1.115-1-2.538-1-4.268 0-1.339.25-2.594.75-3.766a8.945 8.945 0 012.26-3.055c.97-.865 2.19-1.548 3.64-2.05 1.45-.502 3.12-.753 5.02-.753 2.29 0 4.28.362 5.98 1.088 1.73.697 3.18 1.632 4.36 2.803l-4.69 4.687c-.56-.586-1.26-1.102-2.09-1.548-.81-.447-1.75-.67-2.81-.67-1.39 0-2.42.293-3.09.879-.64.586-.97 1.172-.97 1.757 0 .782.34 1.409 1.01 1.884.7.446 1.55.864 2.55 1.255 1.03.363 2.15.753 3.35 1.172 1.2.418 2.3.99 3.31 1.715 1.03.698 1.88 1.618 2.55 2.762.7 1.144 1.04 2.608 1.04 4.394zm28.17 6.193c-1.2 1.227-2.65 2.162-4.36 2.804-1.7.613-3.59.92-5.69.92-2.28 0-4.38-.362-6.27-1.088-1.87-.725-3.48-1.771-4.82-3.138-1.34-1.395-2.38-3.069-3.13-5.022-.73-1.98-1.09-4.212-1.09-6.695 0-2.483.36-4.701 1.09-6.653.75-1.981 1.79-3.655 3.13-5.022 1.34-1.395 2.95-2.455 4.82-3.18 1.89-.753 3.99-1.13 6.27-1.13 2.1 0 3.99.321 5.69.962 1.71.614 3.16 1.535 4.36 2.762l-4.65 4.687a5.931 5.931 0 00-2.26-1.423c-.86-.307-1.8-.46-2.8-.46-1.01 0-1.96.209-2.85.628-.86.39-1.63.99-2.3 1.799-.67.781-1.2 1.758-1.59 2.929-.36 1.172-.54 2.539-.54 4.101 0 1.562.18 2.929.54 4.101.39 1.172.92 2.162 1.59 2.971a7.126 7.126 0 002.3 1.799c.89.391 1.84.586 2.85.586 1 0 1.94-.153 2.8-.46a6.39 6.39 0 002.26-1.465l4.65 4.687zm12.93 3.264v-4.98c2.2-1.757 4.14-3.389 5.81-4.896 1.68-1.506 3.07-2.943 4.19-4.31 1.11-1.367 1.95-2.692 2.51-3.975.58-1.311.88-2.636.88-3.975 0-.865-.37-1.604-1.09-2.218-.7-.614-1.67-.921-2.93-.921-.87 0-1.7.223-2.51.67-.78.418-1.48.934-2.09 1.548l-4.69-4.687c.53-.53 1.12-1.032 1.76-1.506.64-.474 1.35-.893 2.13-1.256.81-.362 1.7-.641 2.68-.836.98-.196 2.09-.293 3.35-.293 1.67 0 3.19.237 4.56.711 1.37.446 2.52 1.088 3.47 1.925a8.026 8.026 0 012.18 2.929c.53 1.116.79 2.357.79 3.724 0 1.423-.23 2.846-.71 4.269a18.75 18.75 0 01-2.01 4.184 26.44 26.44 0 01-3.05 3.934 32.755 32.755 0 01-3.85 3.431h10.59v6.528h-21.97zm49.12-8.746c0 1.395-.3 2.664-.92 3.808-.61 1.144-1.46 2.134-2.55 2.971-1.09.809-2.37 1.451-3.85 1.925-1.48.446-3.07.67-4.77.67-1.7 0-3.29-.224-4.77-.67-1.48-.474-2.76-1.116-3.85-1.925-1.09-.837-1.94-1.827-2.55-2.971-.62-1.144-.92-2.413-.92-3.808 0-.837.14-1.632.41-2.385.31-.753.7-1.437 1.18-2.05.47-.614.99-1.13 1.54-1.549.59-.446 1.16-.781 1.72-1.004-.5-.195-1-.502-1.51-.921-.47-.446-.9-.948-1.29-1.506a9.745 9.745 0 01-.92-1.925 7.424 7.424 0 01-.34-2.26c0-1.367.29-2.608.88-3.724a9.351 9.351 0 012.43-2.929c1.03-.837 2.23-1.479 3.6-1.925 1.36-.474 2.83-.711 4.39-.711 1.53 0 2.98.237 4.35.711 1.4.446 2.6 1.088 3.6 1.925a8.841 8.841 0 012.43 2.929c.61 1.116.92 2.357.92 3.724 0 .782-.13 1.535-.38 2.26a7.577 7.577 0 01-.92 1.925 7.1 7.1 0 01-1.3 1.506c-.47.419-.96.726-1.46.921.56.223 1.11.558 1.67 1.004.59.419 1.12.935 1.59 1.549a7.57 7.57 0 011.13 2.05 6.2 6.2 0 01.46 2.385zm-8.07-13.39c0-.475-.1-.935-.3-1.381a3.315 3.315 0 00-.79-1.214 3.324 3.324 0 00-1.26-.837 4.067 4.067 0 00-1.67-.335c-.61 0-1.17.112-1.67.335a3.65 3.65 0 00-1.3.837c-.34.363-.6.767-.8 1.214-.16.446-.25.906-.25 1.381 0 .948.35 1.813 1.05 2.594.72.753 1.71 1.13 2.97 1.13 1.26 0 2.23-.377 2.93-1.13.72-.781 1.09-1.646 1.09-2.594zm.16 13.097c0-1.143-.39-2.092-1.17-2.845-.75-.753-1.75-1.13-3.01-1.13-1.26 0-2.27.377-3.05 1.13-.76.753-1.13 1.702-1.13 2.845 0 1.116.37 2.051 1.13 2.804.78.753 1.79 1.13 3.05 1.13 1.26 0 2.26-.377 3.01-1.13.78-.753 1.17-1.688 1.17-2.804zm35.11-.837c0 1.535-.3 2.944-.92 4.227a10.19 10.19 0 01-2.51 3.264c-1.03.892-2.23 1.59-3.6 2.092-1.36.502-2.81.753-4.35.753-1.98 0-3.74-.376-5.27-1.13a10.685 10.685 0 01-3.81-3.18c-1.03-1.395-1.83-3.069-2.38-5.021-.53-1.981-.8-4.185-.8-6.612 0-2.455.31-4.659.92-6.612.61-1.98 1.51-3.654 2.68-5.021a11.79 11.79 0 014.27-3.222c1.7-.753 3.62-1.13 5.77-1.13 2.15 0 4.03.377 5.65 1.13 1.62.725 2.93 1.59 3.93 2.594l-4.68 4.687c-.56-.586-1.29-1.074-2.18-1.465-.86-.39-1.83-.585-2.89-.585-1.56 0-2.91.627-4.05 1.883-1.12 1.255-1.73 3.068-1.85 5.44.2-.335.48-.642.84-.921a6.28 6.28 0 011.3-.711c.5-.224 1.02-.391 1.55-.503a6.38 6.38 0 011.63-.209c1.51 0 2.91.251 4.22.753 1.32.475 2.45 1.158 3.39 2.051.98.893 1.75 1.981 2.31 3.264.55 1.255.83 2.65.83 4.184zm-7.28 0c0-1.227-.37-2.259-1.13-3.096-.75-.865-1.74-1.297-2.97-1.297-1.25 0-2.26.432-3.01 1.297-.76.837-1.13 1.869-1.13 3.096 0 1.256.37 2.316 1.13 3.181.75.837 1.76 1.255 3.01 1.255 1.23 0 2.22-.418 2.97-1.255.76-.865 1.13-1.925 1.13-3.181zm34.57 0c0 1.535-.31 2.944-.92 4.227a10.364 10.364 0 01-2.52 3.264c-1.03.892-2.23 1.59-3.59 2.092-1.37.502-2.82.753-4.36.753-1.98 0-3.73-.376-5.27-1.13a10.859 10.859 0 01-3.81-3.18c-1.03-1.395-1.82-3.069-2.38-5.021-.53-1.981-.8-4.185-.8-6.612 0-2.455.31-4.659.92-6.612.62-1.98 1.51-3.654 2.68-5.021a11.875 11.875 0 014.27-3.222c1.7-.753 3.63-1.13 5.78-1.13 2.14 0 4.03.377 5.64 1.13 1.62.725 2.93 1.59 3.94 2.594l-4.69 4.687c-.56-.586-1.28-1.074-2.17-1.465-.87-.39-1.83-.585-2.89-.585-1.56 0-2.92.627-4.06 1.883-1.12 1.255-1.73 3.068-1.84 5.44.19-.335.47-.642.83-.921.39-.279.83-.516 1.3-.711.5-.224 1.02-.391 1.55-.503a6.38 6.38 0 011.63-.209c1.51 0 2.92.251 4.23.753 1.31.475 2.44 1.158 3.39 2.051a9.596 9.596 0 012.3 3.264c.56 1.255.84 2.65.84 4.184zm-7.28 0c0-1.227-.38-2.259-1.13-3.096-.76-.865-1.75-1.297-2.98-1.297-1.25 0-2.26.432-3.01 1.297-.75.837-1.13 1.869-1.13 3.096 0 1.256.38 2.316 1.13 3.181.75.837 1.76 1.255 3.01 1.255 1.23 0 2.22-.418 2.98-1.255.75-.865 1.13-1.925 1.13-3.181zm10.75.712v-4.938h11.34v4.938h-11.34zm33.64-.921c0 1.562-.28 2.999-.83 4.31a9.658 9.658 0 01-2.35 3.39c-1 .948-2.24 1.688-3.72 2.218-1.45.53-3.08.795-4.9.795-2.01 0-3.68-.349-5.02-1.046-1.34-.698-2.61-1.646-3.81-2.846l4.69-4.687a7.266 7.266 0 001.72 1.465c.67.39 1.47.586 2.42.586 1.17 0 2.08-.363 2.72-1.088.67-.726 1.01-1.758 1.01-3.097v-20.923h8.07v20.923zM478.576 274.814c0-3.647-.656-6.831-1.929-9.532-1.272-2.7-2.978-4.937-5.109-6.729-2.12-1.791-4.542-3.116-7.26-3.993a27.19 27.19 0 00-8.382-1.325c-2.889 0-5.679.45-8.395 1.325-2.717.877-5.146 2.202-7.263 3.962-2.116 1.77-3.82 4.006-5.111 6.708-1.274 2.7-1.907 5.885-1.907 9.532 0 3.646.633 6.814 1.907 9.513 1.291 2.706 2.995 4.956 5.111 6.749 2.117 1.788 4.546 3.114 7.263 3.99a27.108 27.108 0 008.395 1.309c.982 0 1.947-.052 2.89-.155.484.533 1.087 1.084 1.758 1.684.686.604 1.462 1.188 2.338 1.792.983.635 2.102 1.102 3.321 1.426 1.221.31 2.48.5 3.735.57 1.256.066 2.511.035 3.731-.106 1.225-.137 2.343-.343 3.321-.633l-.326-4.89c-.722.171-1.615.296-2.682.343a32.796 32.796 0 01-3.167 0 18.663 18.663 0 01-2.977-.36c-.913-.204-1.617-.446-2.115-.772l-.621-.468a22.584 22.584 0 005.317-2.835 20.312 20.312 0 004.285-4.27c1.202-1.651 2.15-3.545 2.837-5.677.688-2.149 1.035-4.524 1.035-7.158zm-5.475-.052c0 2.274-.326 4.304-.96 6.075-.621 1.77-1.498 3.303-2.599 4.593a13.906 13.906 0 01-3.924 3.216 17.341 17.341 0 01-4.832 1.841l-1.155-1.357a27.143 27.143 0 01-.999-1.172c-.397-.444-.824-.929-1.326-1.409a13.565 13.565 0 00-1.652-1.446 10.003 10.003 0 00-1.925-1.189 9.45 9.45 0 00-3.339-.977 20.925 20.925 0 00-3.492-.07c-1.154.07-2.255.188-3.269.395-1.014.189-1.894.344-2.635.499a17.272 17.272 0 01-1.683-3.956c-.412-1.462-.62-3.15-.62-5.043 0-2.772.462-5.18 1.391-7.211.929-2.03 2.186-3.731 3.752-5.074 1.583-1.361 3.407-2.357 5.472-3.027 2.084-.674 4.252-1 6.536-1 2.309 0 4.512.326 6.596 1 2.096.67 3.919 1.666 5.505 3.027 1.582 1.343 2.819 3.044 3.748 5.074.93 2.031 1.41 4.439 1.41 7.211zM454.054 290.9c-3.096-.206-5.832-1.031-8.205-2.457a8.22 8.22 0 011.343-.243c.498-.053 1.013-.07 1.546-.053.516.019 1.017.07 1.498.137a5.23 5.23 0 011.189.314c.55.272 1.031.651 1.445 1.101.396.461.789.859 1.184 1.201zm76.138-12.557v-24.368h-5.471v24.261c0 2.481-.154 4.542-.462 6.181-.331 1.634-.894 2.942-1.741 3.939-.84.999-1.995 1.703-3.475 2.1-1.48.41-3.356.617-5.625.617-2.22 0-4.043-.207-5.47-.617-1.449-.397-2.582-1.101-3.427-2.1-.842-.997-1.427-2.305-1.753-3.939-.344-1.639-.516-3.7-.516-6.181v-24.261h-5.475v24.368c0 3.321.348 6.141 1.018 8.431.651 2.305 1.669 4.163 3.043 5.588 1.361 1.415 3.097 2.428 5.18 3.05 2.084.615 4.56.911 7.4.911 2.907 0 5.418-.296 7.52-.911 2.096-.622 3.837-1.635 5.21-3.05 1.361-1.425 2.375-3.283 3.049-5.553.669-2.29.995-5.115.995-8.466zm51.36 17.257l-18.46-41.625h-3.529L541.204 295.6h5.902l5.783-13.007h16.828l5.848 13.007h5.987zm-14.139-18.31h-12.149l3.405-7.999c.467-1.014.911-2.03 1.344-3.062a91.68 91.68 0 001.289-3.097c.498 1.085.965 2.15 1.427 3.217.45 1.048.913 2.1 1.363 3.148l3.321 7.793zm59.465 18.31v-5.316h-24.831v-36.309h-5.47V295.6h30.301zm12.333-.005h5.471v-41.62h-5.471v41.62zm61.05-20.781c0-3.166-.502-6.02-1.479-8.602-.983-2.582-2.463-4.766-4.423-6.572-1.96-1.81-4.405-3.202-7.329-4.185-2.943-.978-6.352-1.48-10.238-1.48h-14.059V295.6h14.059c3.886 0 7.295-.502 10.238-1.479 2.924-.983 5.369-2.374 7.329-4.184 1.96-1.807 3.44-3.992 4.423-6.554.977-2.564 1.479-5.418 1.479-8.569zm-5.47 0c0 2.273-.331 4.371-.983 6.265-.657 1.889-1.686 3.527-3.131 4.884-1.427 1.379-3.287 2.427-5.541 3.186-2.273.756-5.009 1.135-8.243 1.135h-8.69v-30.992h8.69c3.234 0 5.97.378 8.243 1.136 2.254.74 4.114 1.807 5.541 3.184 1.445 1.361 2.474 2.997 3.131 4.886.652 1.894.983 3.994.983 6.316zm55.504 20.786l-18.461-41.625h-3.527L709.948 295.6h5.902l5.78-13.007h16.83l5.849 13.007h5.986zm-14.143-18.31h-12.149l3.41-7.999c.462-1.014.912-2.03 1.339-3.062a77.688 77.688 0 001.291-3.097c.502 1.085.964 2.15 1.431 3.217.444 1.048.911 2.1 1.357 3.148l3.321 7.793zm67.671-2.476c0-3.166-.481-6.02-1.462-8.602-.997-2.582-2.459-4.766-4.419-6.572-1.964-1.81-4.423-3.202-7.347-4.185-2.929-.978-6.334-1.48-10.241-1.48h-14.038V295.6h14.038c3.907 0 7.312-.502 10.241-1.479 2.924-.983 5.383-2.374 7.347-4.184 1.96-1.807 3.422-3.992 4.419-6.554.981-2.564 1.462-5.418 1.462-8.569zm-5.472 0c0 2.273-.325 4.371-.963 6.265a12.11 12.11 0 01-3.128 4.884c-1.45 1.379-3.29 2.427-5.559 3.186-2.255.756-5.008 1.135-8.223 1.135h-8.692v-30.992h8.692c3.215 0 5.968.378 8.223 1.136 2.269.74 4.109 1.807 5.559 3.184a12.144 12.144 0 013.128 4.886c.638 1.894.963 3.994.963 6.316zm50.366 20.786v-5.316H824.68v-13.68h18.945v-5.318H824.68v-11.994h23.314v-5.317h-28.786V295.6h29.509zm73.745 0v-5.316h-24.037v-13.68h18.945v-5.318h-18.945v-11.994h23.296v-5.317h-28.768V295.6h29.509zm82.108-10.584l-4.47-3.149a45.303 45.303 0 01-2.739 3.391 20.307 20.307 0 01-3.25 2.942c-1.191.859-2.515 1.547-3.961 2.084-1.427.516-3.008.789-4.73.789-2.202 0-4.317-.326-6.365-.978a15.798 15.798 0 01-5.423-2.996c-1.563-1.36-2.819-3.043-3.748-5.074-.929-2.047-1.396-4.439-1.396-7.211 0-2.906.502-5.405 1.497-7.466 1-2.084 2.309-3.77 3.924-5.079 1.6-1.325 3.441-2.268 5.489-2.872a22.196 22.196 0 016.295-.893c2.977 0 5.475.721 7.489 2.149 2.03 1.446 3.853 3.459 5.505 6.057l4.623-2.837c-2.09-3.304-4.575-5.902-7.394-7.796-2.823-1.896-6.228-2.842-10.223-2.842-3.268 0-6.26.503-8.994 1.497-2.741 1-5.146 2.446-7.211 4.358-2.067 1.889-3.666 4.161-4.785 6.81-1.136 2.634-1.686 5.593-1.686 8.862 0 3.285.567 6.281 1.74 8.963 1.15 2.688 2.819 5.025 4.986 7.022 1.723 1.615 3.924 2.959 6.625 4.007 2.704 1.053 5.731 1.569 9.052 1.569 2.321 0 4.421-.312 6.316-.965 1.89-.652 3.63-1.497 5.177-2.546 1.566-1.065 2.976-2.254 4.217-3.612a46.548 46.548 0 003.44-4.184zm56.74-10.202c0-3.647-.65-6.831-1.92-9.532-1.29-2.7-2.98-4.937-5.11-6.729-2.12-1.791-4.54-3.116-7.26-3.993a27.227 27.227 0 00-16.78 0c-2.71.877-5.14 2.202-7.26 3.962-2.11 1.77-3.82 4.006-5.11 6.708-1.27 2.7-1.91 5.885-1.91 9.532 0 3.646.64 6.814 1.91 9.513 1.29 2.706 3 4.956 5.11 6.749 2.12 1.788 4.55 3.114 7.26 3.99 2.72.877 5.51 1.309 8.4 1.309 2.87 0 5.66-.432 8.38-1.309 2.72-.876 5.14-2.202 7.26-3.976 2.13-1.771 3.82-4.009 5.11-6.709 1.27-2.699 1.92-5.867 1.92-9.515zm-5.47-.052c0 2.735-.48 5.126-1.41 7.176-.93 2.046-2.16 3.752-3.75 5.073-1.58 1.345-3.4 2.344-5.47 2.997a21.315 21.315 0 01-6.57 1.016c-2.32 0-4.51-.348-6.59-1.016-2.07-.653-3.89-1.652-5.47-2.997-1.57-1.321-2.82-3.027-3.76-5.073-.92-2.05-1.39-4.441-1.39-7.176 0-2.772.47-5.18 1.39-7.211.94-2.03 2.19-3.731 3.76-5.074 1.58-1.361 3.4-2.357 5.47-3.027 2.08-.674 4.25-1 6.54-1 2.3 0 4.51.326 6.58 1 2.11.67 3.93 1.666 5.51 3.027 1.59 1.343 2.82 3.044 3.75 5.074.95 2.031 1.41 4.439 1.41 7.211zm57.99 20.838v-41.625h-5.47v19.207c0 5.226.02 9.529.05 12.935-2.74-3.351-6.25-7.69-10.55-12.954-4.3-5.282-9.46-11.682-15.48-19.188h-4.63V295.6h5.47v-19.151c0-5.264-.02-9.62-.07-13.061 2.79 3.441 6.3 7.815 10.58 13.114 4.29 5.28 9.43 11.645 15.47 19.098h4.63zm45.84-36.308v-5.317h-28.77V295.6h5.47v-18.996h18.94v-5.318h-18.94v-11.994h23.3zm12.8 36.303h5.47v-41.62h-5.47v41.62zm60.74.005l-18.47-41.625h-3.52l-18.36 41.625h5.88l5.8-13.007h16.83l5.83 13.007h6.01zm-14.16-18.31h-12.15l3.42-7.999c.45-1.014.9-2.03 1.34-3.062.44-1.016.87-2.049 1.29-3.097.49 1.085.97 2.15 1.42 3.217.46 1.048.91 2.1 1.37 3.148l3.31 7.793zm63.57 18.31v-41.625h-5.47v19.207c0 5.226.02 9.529.05 12.935-2.73-3.351-6.24-7.69-10.54-12.954-4.31-5.282-9.47-11.682-15.49-19.188h-4.63V295.6h5.47v-19.151c0-5.264-.01-9.62-.05-13.061 2.77 3.441 6.28 7.815 10.57 13.114 4.28 5.28 9.43 11.645 15.47 19.098h4.62zm58.01-10.633l-4.48-3.1a44.422 44.422 0 01-2.73 3.391 20.145 20.145 0 01-3.27 2.942c-1.19.859-2.5 1.547-3.94 2.084-1.45.516-3.01.789-4.73.789-2.22 0-4.34-.326-6.37-.978-2.03-.655-3.84-1.652-5.42-2.996-1.58-1.36-2.84-3.043-3.77-5.074-.93-2.047-1.39-4.439-1.39-7.211 0-2.906.5-5.405 1.49-7.466 1-2.084 2.31-3.77 3.93-5.079 1.62-1.325 3.44-2.268 5.5-2.872a22.2 22.2 0 016.28-.893c2.98 0 5.49.721 7.51 2.149 2.01 1.446 3.85 3.459 5.49 6.057l4.63-2.837c-2.11-3.304-4.57-5.902-7.39-7.796-2.82-1.896-6.24-2.842-10.24-2.842-3.25 0-6.26.503-8.99 1.497-2.74 1-5.13 2.446-7.21 4.358-2.07 1.889-3.67 4.161-4.79 6.81-1.12 2.634-1.68 5.593-1.68 8.862 0 3.285.58 6.281 1.77 8.963a20.798 20.798 0 004.97 7.022c1.33 1.237 2.94 2.303 4.83 3.232 1.9.931 4.01 1.605 6.37 1.983l-1.84 2.527 3.53 1.896c1.46-.277 2.61-.503 3.44-.639.83-.136 1.24.053 1.24.585l-.11.101c-.06.071-.2.141-.42.19-.21.053-.52.106-.95.155-.41.052-1 .07-1.74.07-.84 0-1.63-.088-2.41-.274-.77-.206-1.77-.585-3.01-1.135l-2.94 4.145c.88.498 1.69.892 2.43 1.219.73.314 1.44.569 2.13.758.67.189 1.36.33 2.01.397.67.069 1.36.105 2.07.105 1.15 0 2.23-.123 3.23-.361 1-.259 1.88-.604 2.63-1.085.74-.483 1.34-1.07 1.79-1.791.43-.722.65-1.546.65-2.494 0-1.119-.27-2.048-.78-2.771a5.93 5.93 0 00-1.95-1.705c1.65-.342 3.17-.893 4.58-1.632 1.39-.741 2.7-1.582 3.89-2.547a28.36 28.36 0 003.32-3.168 44.455 44.455 0 002.84-3.541zm46.78 10.633l-18.46-41.625h-3.53l-18.36 41.625h5.89l5.79-13.007h16.83l5.85 13.007h5.99zm-14.14-18.31h-12.17l3.42-7.999c.45-1.014.9-2.03 1.35-3.062.43-1.016.86-2.049 1.29-3.097.48 1.085.96 2.15 1.41 3.217.46 1.048.91 2.1 1.38 3.148l3.32 7.793zM500.992 114.193c0 14.766-11.403 23.487-27.512 23.487h-24.156V92.72h28.579c17.724 0 23.089 8.863 23.089 21.473zm12.356 49.933c-2.15-10.616-8.189-18.791-19.337-20.011 13.967-4.026 23.759-16.913 23.759-32.468 0-18.257-12.747-33.02-39.59-33.02h-44.96V212.84h16.104v-61.068h29.661c10.066 0 16.109 6.039 17.844 15.038l9.136 46.03h17.175l-9.792-48.713zm66.16-19.737l57.038-65.762h-20.13L563.4 141.706V78.627h-16.105V212.84H563.4v-65.764l54.633 65.764h20.526l-59.051-68.45zm124.158 68.45h16.103V78.629h-16.103v134.21zM882.167 78.627h-25.363l-38.389 115.161-38.387-115.16h-25.363v134.211h16.109V97.675l38.383 115.164h18.518l38.384-115.164v115.164h16.108V78.627zm128.853 67.105c0 33.551-19.455 55.024-42.947 55.024-23.5 0-42.959-21.473-42.959-55.024 0-33.552 19.459-55.026 42.959-55.026 23.492 0 42.947 21.474 42.947 55.026zm16.78 0c0-40.261-24.83-69.115-59.727-69.115-34.907 0-59.738 28.854-59.738 69.115 0 40.263 24.831 69.119 59.738 69.119 34.897 0 59.727-28.856 59.727-69.119zM977.469 41.721l-15.434 30.87h11.531l22.024-30.87h-18.121zm154.341 36.906l-38.25 114.751-38.25-114.75h-17.45l46.31 134.211h18.79l46.3-134.212h-17.45zm106.03 120.116h-53.69v-46.972h51V137.68h-51V92.72h52.34V78.627h-68.44V212.84h69.79v-14.096zm28.2 14.096h16.1V78.629h-16.1v134.21zm126.82-36.908c0-22.147-15.96-32.212-32.2-37.581l-19.07-6.313c-9.39-3.078-15.83-9.118-15.83-19.857 0-10.738 8.59-22.143 26.84-22.143 12.36 0 22.95 6.04 29.92 13.008l10.34-10.46c-9.92-9.931-23.48-16.644-40.26-16.644-29.94 0-43.62 19.721-43.62 36.239 0 19.325 11.81 29.662 26.85 34.618l18.92 6.316c12.22 4.026 21.34 11.13 21.34 22.817 0 14.76-10.6 25.499-27.52 25.499-13.16 0-24.15-5.234-31.95-13.024l-10.32 10.337c8.05 8.052 22.54 16.778 42.27 16.778 27.12 0 44.29-16.104 44.29-39.59zM103.753 341.318h220.034c9.069 0 16.4-7.347 16.4-16.399v-129.77a16.36 16.36 0 00-4.062-10.806L185.106 12.059a16.435 16.435 0 00-12.271-5.594c-4.869-.12-9.185 1.977-12.303 5.49L9.512 181.436a16.376 16.376 0 00-4.162 10.906v132.576c0 9.052 7.347 16.399 16.4 16.399 9.064 0 16.394-7.347 16.394-16.399V198.59L172.662 47.64l134.725 153.684v107.178H120.149v-71.058h105.234v24.601c0 9.053 7.349 16.399 16.417 16.399 9.048 0 16.394-7.346 16.394-16.399v-41c0-9.07-7.346-16.398-16.394-16.398H103.753c-9.05 0-16.398 7.328-16.398 16.398v103.874c0 9.052 7.348 16.399 16.398 16.399z"
    fill="#fff" />
</svg>
