<svg width="1400" height="359" fill="none" xmlns="http://www.w3.org/2000/svg">
  <path
    d="M1027.1 286.612c-1.38 1.408-3.04 2.481-5 3.217-1.95.704-4.13 1.056-6.53 1.056-2.62 0-5.02-.416-7.2-1.248-2.14-.833-3.98-2.033-5.52-3.602-1.54-1.6-2.74-3.521-3.602-5.762-.832-2.272-1.248-4.833-1.248-7.682s.416-5.394 1.248-7.635c.862-2.273 2.062-4.193 3.602-5.762 1.54-1.6 3.38-2.817 5.52-3.649 2.18-.864 4.58-1.297 7.2-1.297 2.4 0 4.58.369 6.53 1.105 1.96.704 3.62 1.76 5 3.169l-5.33 5.378a6.906 6.906 0 00-2.59-1.633c-1-.352-2.07-.528-3.22-.528-1.15 0-2.24.24-3.27.72-.99.448-1.87 1.137-2.64 2.065-.77.896-1.37 2.017-1.82 3.361-.42 1.345-.63 2.913-.63 4.706 0 1.792.21 3.361.63 4.705.45 1.345 1.05 2.481 1.82 3.41.77.896 1.65 1.584 2.64 2.064 1.03.448 2.12.673 3.27.673a9.59 9.59 0 003.22-.529 7.445 7.445 0 002.59-1.68l5.33 5.378zm22.37 3.745l-1.87-9.555c-.29-1.409-.75-2.369-1.39-2.881-.64-.545-1.67-.817-3.07-.817h-2.45v13.253h-9.27v-35.58h14.26c2.05 0 3.84.288 5.38.864 1.54.544 2.8 1.296 3.79 2.257a8.974 8.974 0 012.31 3.265c.51 1.216.76 2.513.76 3.889a8.54 8.54 0 01-.43 2.641 7.912 7.912 0 01-1.2 2.497 8.927 8.927 0 01-1.92 2.065 8.175 8.175 0 01-2.64 1.296c1.6.352 2.75 1.024 3.46 2.017.73.96 1.28 2.161 1.63 3.601l2.45 11.188h-9.8zm-.96-24.392c0-.961-.36-1.809-1.1-2.545-.74-.769-1.73-1.153-2.98-1.153h-3.74v7.347h3.74c1.25 0 2.24-.352 2.98-1.057.74-.736 1.1-1.6 1.1-2.592zm15.61 24.392v-35.58h20.45v7.49h-11.18v6.627h10.85v7.49h-10.85v6.482h11.57v7.491h-20.84zm54.4-3.745c-1.37 1.408-3.04 2.481-4.99 3.217-1.95.704-4.13 1.056-6.53 1.056-2.63 0-5.03-.416-7.2-1.248-2.15-.833-3.99-2.033-5.53-3.602-1.53-1.6-2.73-3.521-3.6-5.762-.83-2.272-1.25-4.833-1.25-7.682s.42-5.394 1.25-7.635c.87-2.273 2.07-4.193 3.6-5.762 1.54-1.6 3.38-2.817 5.53-3.649 2.17-.864 4.57-1.297 7.2-1.297 2.4 0 4.58.369 6.53 1.105 1.95.704 3.62 1.76 4.99 3.169l-5.33 5.378a6.829 6.829 0 00-2.59-1.633c-.99-.352-2.07-.528-3.22-.528-1.15 0-2.24.24-3.26.72-1 .448-1.88 1.137-2.64 2.065-.77.896-1.38 2.017-1.83 3.361-.41 1.345-.62 2.913-.62 4.706 0 1.792.21 3.361.62 4.705.45 1.345 1.06 2.481 1.83 3.41a7.959 7.959 0 002.64 2.064 8.03 8.03 0 003.26.673c1.15 0 2.23-.176 3.22-.529a7.355 7.355 0 002.59-1.68l5.33 5.378zm4.32 3.745v-35.58h9.27v35.58h-9.27zm19.59 1.777h-5.47l9.75-39.134h5.52l-9.8 39.134zm37.94-12.629c0 1.633-.31 3.169-.91 4.61-.61 1.408-1.53 2.625-2.74 3.649-1.19 1.024-2.66 1.841-4.42 2.449-1.76.576-3.79.864-6.1.864-2.88 0-5.3-.432-7.25-1.296-1.92-.897-3.5-1.953-4.75-3.169l5.38-5.378c.64.64 1.45 1.232 2.45 1.776 1.02.513 2.28.769 3.79.769.7 0 1.36-.112 1.97-.336.61-.224 1.12-.513 1.53-.865.45-.352.79-.752 1.01-1.2.26-.448.39-.896.39-1.345 0-.928-.4-1.664-1.2-2.208-.77-.545-1.75-1.041-2.93-1.489-1.16-.448-2.42-.912-3.8-1.392a18.214 18.214 0 01-3.79-1.873c-1.15-.8-2.13-1.825-2.93-3.073-.77-1.281-1.15-2.913-1.15-4.898 0-1.536.29-2.977.86-4.321a10.37 10.37 0 012.6-3.506c1.12-.992 2.51-1.776 4.17-2.352 1.67-.577 3.59-.865 5.77-.865 2.62 0 4.91.417 6.86 1.249 1.99.8 3.65 1.872 5 3.217l-5.38 5.378c-.64-.672-1.44-1.265-2.4-1.777-.93-.512-2-.768-3.22-.768-1.6 0-2.79.336-3.55 1.008-.74.672-1.11 1.345-1.11 2.017 0 .896.39 1.617 1.15 2.161.8.512 1.78.992 2.93 1.44 1.19.416 2.47.864 3.84 1.345a14.67 14.67 0 013.8 1.968c1.18.801 2.16 1.857 2.93 3.169.8 1.313 1.2 2.993 1.2 5.042zm32.31 7.107c-1.37 1.408-3.04 2.481-4.99 3.217-1.95.704-4.13 1.056-6.53 1.056-2.63 0-5.03-.416-7.2-1.248-2.15-.833-3.99-2.033-5.53-3.602-1.53-1.6-2.73-3.521-3.6-5.762-.83-2.272-1.25-4.833-1.25-7.682s.42-5.394 1.25-7.635c.87-2.273 2.07-4.193 3.6-5.762 1.54-1.6 3.38-2.817 5.53-3.649 2.17-.864 4.57-1.297 7.2-1.297 2.4 0 4.58.369 6.53 1.105 1.95.704 3.62 1.76 4.99 3.169l-5.33 5.378a6.829 6.829 0 00-2.59-1.633c-.99-.352-2.06-.528-3.22-.528-1.15 0-2.24.24-3.26.72-.99.448-1.88 1.137-2.64 2.065-.77.896-1.38 2.017-1.83 3.361-.41 1.345-.62 2.913-.62 4.706 0 1.792.21 3.361.62 4.705.45 1.345 1.06 2.481 1.83 3.41a8.06 8.06 0 002.64 2.064 8.03 8.03 0 003.26.673c1.16 0 2.23-.176 3.22-.529a7.355 7.355 0 002.59-1.68l5.33 5.378zm14.84 3.745v-5.714c2.53-2.017 4.75-3.889 6.67-5.618 1.92-1.729 3.53-3.377 4.81-4.946 1.28-1.568 2.24-3.089 2.88-4.561.67-1.505 1.01-3.025 1.01-4.562 0-.992-.42-1.84-1.25-2.545-.8-.704-1.92-1.056-3.36-1.056-1 0-1.96.256-2.89.768-.89.48-1.69 1.073-2.4 1.777l-5.37-5.378a17.6 17.6 0 012.01-1.729c.74-.544 1.56-1.024 2.45-1.44.93-.416 1.95-.736 3.07-.961 1.12-.224 2.41-.336 3.85-.336 1.92 0 3.66.272 5.23.817 1.57.512 2.9 1.248 3.99 2.208a9.259 9.259 0 012.49 3.362c.61 1.28.91 2.705.91 4.273 0 1.633-.27 3.265-.81 4.898a21.912 21.912 0 01-2.31 4.801 30.692 30.692 0 01-3.5 4.514 37.772 37.772 0 01-4.42 3.937h12.15v7.491h-25.21zm56.37-10.035c0 1.6-.35 3.057-1.05 4.369-.71 1.312-1.69 2.449-2.93 3.409-1.25.928-2.72 1.665-4.42 2.209-1.7.512-3.52.768-5.48.768-1.95 0-3.77-.256-5.47-.768-1.7-.544-3.17-1.281-4.42-2.209a10.659 10.659 0 01-2.93-3.409c-.7-1.312-1.05-2.769-1.05-4.369 0-.961.16-1.873.48-2.737.35-.865.8-1.649 1.34-2.353a9.498 9.498 0 011.78-1.777c.67-.512 1.33-.896 1.97-1.152-.58-.224-1.15-.576-1.73-1.057a10.92 10.92 0 01-1.49-1.728c-.42-.673-.77-1.409-1.06-2.209a8.968 8.968 0 01-.38-2.593c0-1.568.34-2.993 1.01-4.273.7-1.313 1.63-2.433 2.78-3.362 1.19-.96 2.56-1.696 4.13-2.208 1.57-.545 3.25-.817 5.04-.817 1.77 0 3.43.272 5 .817 1.6.512 2.98 1.248 4.13 2.208 1.18.929 2.11 2.049 2.78 3.362.71 1.28 1.06 2.705 1.06 4.273a7.82 7.82 0 01-.43 2.593c-.26.8-.61 1.536-1.06 2.209-.42.64-.91 1.216-1.49 1.728-.54.481-1.1.833-1.68 1.057.64.256 1.28.64 1.92 1.152.67.48 1.28 1.072 1.83 1.777a8.93 8.93 0 011.29 2.353c.36.864.53 1.776.53 2.737zm-9.27-15.366c0-.544-.11-1.072-.33-1.584-.19-.513-.5-.977-.91-1.393a3.893 3.893 0 00-1.44-.96 4.717 4.717 0 00-1.93-.384c-.7 0-1.34.128-1.92.384-.57.224-1.07.544-1.48.96-.39.416-.69.88-.92 1.393-.19.512-.28 1.04-.28 1.584 0 1.089.4 2.081 1.2 2.977.83.864 1.96 1.297 3.4 1.297 1.45 0 2.57-.433 3.37-1.297.83-.896 1.24-1.888 1.24-2.977zm.2 15.029c0-1.312-.45-2.4-1.35-3.265-.86-.864-2.01-1.296-3.46-1.296-1.44 0-2.6.432-3.5 1.296-.86.865-1.3 1.953-1.3 3.265 0 1.281.44 2.353 1.3 3.218.9.864 2.06 1.296 3.5 1.296 1.45 0 2.6-.432 3.46-1.296.9-.865 1.35-1.937 1.35-3.218zm40.28-.96c0 1.761-.35 3.377-1.05 4.85a11.804 11.804 0 01-2.89 3.745c-1.18 1.024-2.56 1.825-4.12 2.401-1.57.576-3.24.864-5 .864-2.27 0-4.29-.432-6.05-1.296-1.73-.865-3.18-2.081-4.37-3.65-1.18-1.6-2.09-3.521-2.73-5.762-.61-2.272-.92-4.801-.92-7.586 0-2.817.36-5.346 1.06-7.587.7-2.273 1.73-4.193 3.07-5.762 1.35-1.6 2.98-2.833 4.9-3.697 1.95-.864 4.16-1.297 6.63-1.297 2.46 0 4.62.433 6.48 1.297 1.86.832 3.36 1.825 4.51 2.977l-5.38 5.378c-.64-.672-1.47-1.233-2.49-1.681-.99-.448-2.1-.672-3.32-.672-1.79 0-3.34.72-4.65 2.161-1.28 1.44-1.99 3.521-2.12 6.242.23-.384.55-.736.96-1.056.45-.321.95-.593 1.49-.817a8.93 8.93 0 011.78-.576 7.32 7.32 0 011.87-.24c1.73 0 3.35.288 4.85.864 1.51.544 2.8 1.329 3.89 2.353 1.12 1.024 2 2.273 2.64 3.745.64 1.441.96 3.041.96 4.802zm-8.35 0c0-1.408-.43-2.593-1.3-3.553-.86-.993-2-1.489-3.41-1.489-1.44 0-2.59.496-3.46 1.489-.86.96-1.29 2.145-1.29 3.553 0 1.441.43 2.657 1.29 3.649.87.961 2.02 1.441 3.46 1.441 1.41 0 2.55-.48 3.41-1.441.87-.992 1.3-2.208 1.3-3.649zm39.66 0c0 1.761-.35 3.377-1.06 4.85-.7 1.44-1.66 2.689-2.88 3.745-1.18 1.024-2.56 1.825-4.13 2.401-1.57.576-3.23.864-4.99.864-2.27 0-4.29-.432-6.05-1.296a12.27 12.27 0 01-4.37-3.65c-1.19-1.6-2.1-3.521-2.74-5.762-.61-2.272-.91-4.801-.91-7.586 0-2.817.35-5.346 1.06-7.587.7-2.273 1.72-4.193 3.07-5.762 1.34-1.6 2.98-2.833 4.9-3.697 1.95-.864 4.16-1.297 6.62-1.297 2.47 0 4.63.433 6.49 1.297 1.85.832 3.36 1.825 4.51 2.977l-5.38 5.378c-.64-.672-1.47-1.233-2.5-1.681-.99-.448-2.09-.672-3.31-.672-1.79 0-3.34.72-4.66 2.161-1.28 1.44-1.98 3.521-2.11 6.242.22-.384.55-.736.96-1.056.45-.321.95-.593 1.49-.817a8.93 8.93 0 011.78-.576c.6-.16 1.23-.24 1.87-.24 1.73 0 3.34.288 4.85.864 1.5.544 2.8 1.329 3.89 2.353 1.12 1.024 2 2.273 2.64 3.745.64 1.441.96 3.041.96 4.802zm-8.36 0c0-1.408-.43-2.593-1.29-3.553-.87-.993-2-1.489-3.41-1.489-1.44 0-2.59.496-3.46 1.489-.86.96-1.29 2.145-1.29 3.553 0 1.441.43 2.657 1.29 3.649.87.961 2.02 1.441 3.46 1.441 1.41 0 2.54-.48 3.41-1.441.86-.992 1.29-2.208 1.29-3.649zm12.34.816v-5.666h13.02v5.666h-13.02zm38.61-1.056c0 1.793-.32 3.441-.96 4.946a11.132 11.132 0 01-2.69 3.889c-1.15 1.088-2.58 1.937-4.27 2.545-1.67.608-3.54.912-5.62.912-2.31 0-4.23-.4-5.76-1.2-1.54-.8-3-1.889-4.37-3.265l5.38-5.378c.54.64 1.2 1.2 1.96 1.68.77.449 1.7.673 2.79.673 1.34 0 2.38-.417 3.12-1.249.77-.832 1.15-2.017 1.15-3.553v-24.008h9.27v24.008z"
    fill="#fff" />
  <path fill-rule="evenodd" clip-rule="evenodd"
    d="M500.992 114.192c0 14.766-11.403 23.488-27.512 23.488h-24.156V92.72h28.579c17.724 0 23.089 8.863 23.089 21.472zm12.356 49.933c-2.15-10.615-8.189-18.79-19.337-20.01 13.967-4.027 23.759-16.914 23.759-32.469 0-18.257-12.747-33.019-39.59-33.019h-44.96v134.211h16.104V151.77h29.661c10.066 0 16.109 6.04 17.844 15.039l9.136 46.029h17.175l-9.792-48.713zM579.508 144.389l57.038-65.762h-20.13L563.4 141.705V78.627h-16.105v134.211H563.4v-65.764l54.633 65.764h20.526l-59.051-68.449zM703.666 212.838h16.103V78.628h-16.103v134.21zM882.167 78.627h-25.363l-38.389 115.16-38.387-115.16h-25.363v134.211h16.109V97.674l38.383 115.164h18.518l38.383-115.164v115.164h16.109V78.627zM1011.02 145.732c0 33.55-19.455 55.024-42.947 55.024-23.5 0-42.959-21.474-42.959-55.024 0-33.552 19.459-55.026 42.959-55.026 23.492 0 42.947 21.474 42.947 55.026zm16.78 0c0-40.261-24.83-69.115-59.727-69.115-34.907 0-59.738 28.854-59.738 69.115 0 40.263 24.831 69.119 59.738 69.119 34.897 0 59.727-28.856 59.727-69.119zM977.469 41.721L962.035 72.59h11.531l22.024-30.87h-18.121zM1131.81 78.627l-38.25 114.75-38.25-114.75h-17.45l46.31 134.211h18.79l46.3-134.211h-17.45zM1237.84 198.743h-53.69V151.77h51v-14.09h-51V92.72h52.34V78.627h-68.44v134.211h69.79v-14.095zM1266.04 212.838h16.1V78.628h-16.1v134.21zM1392.86 175.931c0-22.147-15.96-32.212-32.2-37.581l-19.07-6.313c-9.39-3.078-15.83-9.118-15.83-19.857 0-10.738 8.59-22.143 26.84-22.143 12.36 0 22.95 6.04 29.92 13.008l10.34-10.46c-9.92-9.931-23.48-16.644-40.26-16.644-29.94 0-43.62 19.721-43.62 36.239 0 19.325 11.81 29.662 26.85 34.618l18.92 6.316c12.22 4.026 21.34 11.13 21.34 22.817 0 14.76-10.6 25.499-27.52 25.499-13.16 0-24.15-5.234-31.95-13.024l-10.32 10.337c8.05 8.052 22.54 16.778 42.27 16.778 27.12 0 44.29-16.104 44.29-39.59zM103.753 341.317h220.034c9.069 0 16.4-7.346 16.4-16.399v-129.77c0-3.973-1.433-7.813-4.062-10.805L185.106 12.059a16.435 16.435 0 00-12.271-5.594c-4.869-.12-9.185 1.976-12.303 5.489L9.512 181.437a16.374 16.374 0 00-4.162 10.905v132.576c0 9.053 7.347 16.399 16.4 16.399 9.064 0 16.394-7.346 16.394-16.399V198.589L172.662 47.64l134.725 153.684v107.178H120.149v-71.059h105.234v24.601c0 9.053 7.349 16.4 16.417 16.4 9.048 0 16.394-7.347 16.394-16.4v-41c0-9.07-7.346-16.398-16.394-16.398H103.753c-9.05 0-16.398 7.328-16.398 16.398v103.874c0 9.053 7.348 16.399 16.398 16.399z"
    fill="#fff" />
</svg>
