<svg xmlns="http://www.w3.org/2000/svg" width="24" height="25" viewBox="0 0 24 25" fill="none">
  <path d="M20 10.307V3.75H18V5.75H6V3.75H4V10.307C2.81 11 2 12.275 2 13.75V17.75C2 18.0152 2.10536 18.2696 2.29289 18.4571C2.48043 18.6446 2.73478 18.75 3 18.75H4V22.75H6V18.75H18V22.75H20V18.75H21C21.2652 18.75 21.5196 18.6446 21.7071 18.4571C21.8946 18.2696 22 18.0152 22 17.75V13.75C22 12.275 21.189 11 20 10.307ZM18 7.75V9.75H13V7.75H18ZM6 7.75H11V9.75H6V7.75ZM20 16.75H4V13.75C4 12.647 4.897 11.75 6 11.75H18C19.103 11.75 20 12.647 20 13.75V16.75Z" fill="#53586E"/>
</svg>