<svg xmlns="http://www.w3.org/2000/svg" width="24" height="22" viewBox="0 0 24 22" fill="none">
  <path d="M5.46257 2.81298C3.91966 1.88538 2.22051 2.86569 2.22051 4.66215C2.22251 9.66456 2.22151 14.6665 2.2175 19.6679C2.2165 20.1196 2.17494 20.4343 2.09281 20.612C1.70671 21.4448 0.548399 21.4643 0.144269 20.6587C0.0511233 20.473 0.00455058 20.1753 0.00455058 19.7657C0.00755526 14.9822 0.00605292 10.1986 4.35462e-05 5.41508C-0.00195958 4.52964 0.0651451 3.85101 0.201358 3.37918C1.18089 -0.0285405 5.24022 -0.793508 7.60792 1.78148C7.64397 1.82164 7.68554 1.82766 7.73261 1.79955C9.97561 0.483445 12.6768 0.805696 14.4015 2.76931C14.4676 2.8446 14.5412 2.85264 14.6224 2.79341C15.6214 2.04801 16.7437 2.88225 16.3756 4.04024C16.3225 4.20689 16.0791 4.50354 15.6455 4.93019C13.404 7.13776 11.1735 9.35737 8.95402 11.589C8.62851 11.9153 8.34256 12.1121 8.09618 12.1793C7.04003 12.4669 6.35646 11.1343 7.11965 10.3271C7.12768 10.3186 7.13397 10.3086 7.13816 10.2977C7.14236 10.2868 7.14437 10.2752 7.1441 10.2636C7.14382 10.2519 7.14125 10.2405 7.13654 10.23C7.13183 10.2195 7.12507 10.21 7.11665 10.2021C5.11703 8.34243 4.72492 5.82466 6.07252 3.46953C6.09656 3.42636 6.09105 3.38771 6.05599 3.35358C5.8697 3.17137 5.67891 2.94248 5.46257 2.81298ZM8.77223 8.63607L12.9052 4.50705C12.9222 4.48984 12.9318 4.46657 12.9318 4.4423C12.9318 4.41804 12.9222 4.39476 12.9052 4.37755L12.6212 4.09295C12.0615 3.53006 11.3012 3.21352 10.5076 3.21296C9.71391 3.21239 8.95189 3.52785 8.38914 4.08994L8.37111 4.10801C7.80833 4.67007 7.4909 5.43274 7.48864 6.22825C7.48639 7.02376 7.7995 7.78696 8.35909 8.34996L8.64153 8.63607C8.65006 8.64477 8.66023 8.65167 8.67145 8.65639C8.68267 8.6611 8.69472 8.66353 8.70688 8.66353C8.71905 8.66353 8.73109 8.6611 8.74231 8.65639C8.75353 8.65167 8.7637 8.64477 8.77223 8.63607Z" fill="#53586E"/>
  <path d="M18.0042 9.22339C18.8231 9.22339 19.487 8.55796 19.487 7.73712C19.487 6.91628 18.8231 6.25085 18.0042 6.25085C17.1852 6.25085 16.5214 6.91628 16.5214 7.73712C16.5214 8.55796 17.1852 9.22339 18.0042 9.22339Z" fill="#53586E"/>
  <path d="M22.5171 10.7277C23.3361 10.7277 23.9999 10.0623 23.9999 9.24142C23.9999 8.42058 23.3361 7.75516 22.5171 7.75516C21.6982 7.75516 21.0343 8.42058 21.0343 9.24142C21.0343 10.0623 21.6982 10.7277 22.5171 10.7277Z" fill="#53586E"/>
  <path d="M15.001 12.232C15.8191 12.232 16.4823 11.5673 16.4823 10.7472C16.4823 9.92723 15.8191 9.26248 15.001 9.26248C14.1829 9.26248 13.5197 9.92723 13.5197 10.7472C13.5197 11.5673 14.1829 12.232 15.001 12.232Z" fill="#53586E"/>
  <path d="M19.511 13.7394C20.3299 13.7394 20.9938 13.074 20.9938 12.2531C20.9938 11.4323 20.3299 10.7668 19.511 10.7668C18.6921 10.7668 18.0282 11.4323 18.0282 12.2531C18.0282 13.074 18.6921 13.7394 19.511 13.7394Z" fill="#53586E"/>
  <path d="M11.9947 15.2422C12.812 15.2422 13.4745 14.5781 13.4745 13.7589C13.4745 12.9398 12.812 12.2757 11.9947 12.2757C11.1774 12.2757 10.5149 12.9398 10.5149 13.7589C10.5149 14.5781 11.1774 15.2422 11.9947 15.2422Z" fill="#53586E"/>
  <path d="M16.5047 16.748C17.322 16.748 17.9845 16.084 17.9845 15.2648C17.9845 14.4456 17.322 13.7815 16.5047 13.7815C15.6874 13.7815 15.0249 14.4456 15.0249 15.2648C15.0249 16.084 15.6874 16.748 16.5047 16.748Z" fill="#53586E"/>
  <path d="M13.5001 19.7612C14.3182 19.7612 14.9814 19.0965 14.9814 18.2765C14.9814 17.4565 14.3182 16.7917 13.5001 16.7917C12.682 16.7917 12.0188 17.4565 12.0188 18.2765C12.0188 19.0965 12.682 19.7612 13.5001 19.7612Z" fill="#53586E"/>
</svg>