<svg xmlns="http://www.w3.org/2000/svg" width="24" height="25" viewBox="0 0 24 25" fill="none">
  <rect width="24" height="24" transform="translate(0 0.75)" fill="transparent"/>
  <path d="M8.75 3.75C8.28587 3.75 7.84075 3.93437 7.51256 4.26256C7.18437 4.59075 7 5.03587 7 5.5V16C7 16.966 7.784 17.75 8.75 17.75H19.25C19.7141 17.75 20.1592 17.5656 20.4874 17.2374C20.8156 16.9092 21 16.4641 21 16V5.5C21 5.03587 20.8156 4.59075 20.4874 4.26256C20.1592 3.93437 19.7141 3.75 19.25 3.75H8.75ZM10 15.75C9.73478 15.75 9.48043 15.6446 9.29289 15.4571C9.10536 15.2696 9 15.0152 9 14.75V6.75C9 6.48478 9.10536 6.23043 9.29289 6.04289C9.48043 5.85536 9.73478 5.75 10 5.75H18C18.2652 5.75 18.5196 5.85536 18.7071 6.04289C18.8946 6.23043 19 6.48478 19 6.75V14.75C19 15.0152 18.8946 15.2696 18.7071 15.4571C18.5196 15.6446 18.2652 15.75 18 15.75H10Z" fill="#53586E"/>
  <path d="M6 19.75C5.73478 19.75 5.48043 19.6446 5.29289 19.4571C5.10536 19.2696 5 19.0152 5 18.75V6.75C5 6.48478 4.89464 6.23043 4.70711 6.04289C4.51957 5.85536 4.26522 5.75 4 5.75C3.73478 5.75 3.48043 5.85536 3.29289 6.04289C3.10536 6.23043 3 6.48478 3 6.75V19.75C3 20.2804 3.21071 20.7891 3.58579 21.1642C3.96086 21.5393 4.46957 21.75 5 21.75H18C18.2652 21.75 18.5196 21.6446 18.7071 21.4571C18.8946 21.2696 19 21.0152 19 20.75C19 20.4848 18.8946 20.2304 18.7071 20.0429C18.5196 19.8554 18.2652 19.75 18 19.75H6Z" fill="#53586E"/>
</svg>