<svg width="30" height="25" viewBox="0 0 30 25" fill="none" xmlns="http://www.w3.org/2000/svg">
<path d="M29.4713 5.13387C29.3118 5.0484 29.1321 5.00779 28.9514 5.01638C28.7707 5.02496 28.5956 5.08242 28.445 5.18262L24 8.14012V5.00887C24 4.47844 23.7893 3.96973 23.4142 3.59466C23.0391 3.21959 22.5304 3.00887 22 3.00887H12.1325C11.8673 3.00887 11.6129 3.11423 11.4254 3.30177C11.2379 3.4893 11.1325 3.74366 11.1325 4.00887C11.1325 4.27409 11.2379 4.52844 11.4254 4.71598C11.6129 4.90352 11.8673 5.00887 12.1325 5.00887H22V15.9626C22 16.2278 22.1054 16.4822 22.2929 16.6697C22.4804 16.8573 22.7348 16.9626 23 16.9626C23.2652 16.9626 23.5196 16.8573 23.7071 16.6697C23.8946 16.4822 24 16.2278 24 15.9626V15.8839L28.445 18.8476C28.6101 18.9548 28.8032 19.0109 29 19.0089C29.2652 19.0089 29.5196 18.9035 29.7071 18.716C29.8946 18.5284 30 18.2741 30 18.0089V6.00887C29.9987 5.82895 29.949 5.65269 29.8559 5.4987C29.7628 5.3447 29.63 5.21866 29.4713 5.13387ZM28 16.1401L24 13.4739V10.5439L28 7.88387V16.1401ZM4.74 0.336373C4.65218 0.237381 4.54559 0.156804 4.4264 0.0993108C4.30721 0.0418179 4.1778 0.0085529 4.04566 0.00144404C3.91352 -0.00566482 3.78128 0.0135237 3.65661 0.0578975C3.53194 0.102271 3.41732 0.170948 3.31939 0.259947C3.22146 0.348946 3.14216 0.456497 3.0861 0.576366C3.03004 0.696236 2.99833 0.82604 2.99281 0.958256C2.98728 1.09047 3.00806 1.22247 3.05392 1.3466C3.09979 1.47072 3.16983 1.58452 3.26 1.68137L4.46625 3.00887H2C1.46957 3.00887 0.960859 3.21959 0.585786 3.59466C0.210714 3.96973 0 4.47844 0 5.00887V19.0089C0 19.5393 0.210714 20.048 0.585786 20.4231C0.960859 20.7982 1.46957 21.0089 2 21.0089H20.83L23.26 23.6814C23.3478 23.7804 23.4544 23.8609 23.5736 23.9184C23.6928 23.9759 23.8222 24.0092 23.9543 24.0163C24.0865 24.0234 24.2187 24.0042 24.3434 23.9598C24.4681 23.9155 24.5827 23.8468 24.6806 23.7578C24.7785 23.6688 24.8578 23.5612 24.9139 23.4414C24.97 23.3215 25.0017 23.1917 25.0072 23.0595C25.0127 22.9273 24.9919 22.7953 24.9461 22.6712C24.9002 22.547 24.8302 22.4332 24.74 22.3364L4.74 0.336373ZM2 19.0089V5.00887H6.285L19.0125 19.0089H2Z" fill="#FDFDFD"/>
</svg>
