<svg
  width="81"
  height="81"
  viewBox="0 0 81 81"
  fill="none"
  xmlns="http://www.w3.org/2000/svg"
>
  <path
    d="M4 72.511C4.08 70.8835 4.7625 69.106 5.215 67.511L7.6825 58.511L8.735 54.261C8.7325 53.476 7.11 50.0635 6.7025 49.011C5.7925 46.6535 4.28 40.9535 4.25 38.511V34.261C4.26 28.641 6.785 21.1985 9.835 16.511C12.9875 11.6685 16.5825 8.07851 21.5 5.02601C23.175 3.98851 25.16 3.10601 27 2.40601C32.8725 0.168511 35.7975 -0.0614893 42 0.0110107C45.5375 0.0535107 49.96 1.01101 53.25 2.31101C57.865 4.13851 62.2675 6.95601 65.74 10.5135C78.4325 23.521 79.58 44.3635 68.0975 58.511C64.8125 62.5585 60.915 65.7335 56.25 68.071C52.1725 70.1135 47.805 71.5335 43.25 72.001L41.0155 72.251C39.923 72.3585 39.5075 72.301 38.25 72.251C36.1 72.166 30.0975 70.7835 28 70.0235L22.75 67.9685C21.85 67.9135 18.1125 68.996 17 69.291L11.5 70.6935C8.5125 71.486 7.205 72.0885 4 72.511Z"
    fill="#FDFDFD"
  />
  <path
    d="M12.6599 63.6751L14.5274 55.9251C14.7274 55.1401 15.2474 53.6851 15.1124 52.9251L12.4874 47.6751C11.2274 44.9176 10.1974 40.4601 10.1599 37.4251C10.0824 30.6476 11.2224 25.1451 15.0774 19.4251C19.5599 12.7751 26.7074 8.09512 34.6599 6.85762C36.0724 6.63762 36.3674 6.44512 37.9099 6.42512C42.5224 6.37262 45.4724 6.54512 49.9099 8.09762C57.9324 10.9076 64.3924 17.5001 67.3524 25.4251C68.3974 28.2226 69.5149 33.4701 69.3999 36.4251C69.0149 46.3751 64.5074 55.0276 56.1599 60.5926C53.4099 62.4251 51.0974 63.5901 47.9099 64.4976C45.3649 65.2201 44.7024 65.4126 42.1874 65.6526C41.3049 65.7351 40.3749 65.7076 39.4099 65.6526C36.1424 65.4676 32.7449 65.0176 29.6599 63.8676L23.6599 61.1576C22.8324 61.0401 20.7774 61.6451 19.9099 61.8901L12.6599 63.6751Z"
    fill="#021E4C"
  />
  <path
    d="M26.3682 19.944C27.2457 19.7015 29.2982 19.5415 30.0932 19.944C30.7982 20.374 31.2107 21.2765 31.5532 21.9765C32.3257 23.5515 33.9957 27.0515 33.8407 28.7265C33.6232 31.0515 30.9282 32.219 31.2557 33.9765C31.4408 34.969 32.7432 36.699 33.4008 37.4765C35.5658 40.0315 37.7307 41.9565 40.6182 43.674C41.2782 44.069 43.6857 45.324 44.3682 45.3015C45.7057 45.254 47.3157 42.2215 48.6407 41.5215C49.5182 41.054 50.2807 41.354 51.1182 41.709L57.5407 44.744C58.5382 45.5415 57.8532 47.7515 57.3882 48.7265C56.5257 50.539 53.8157 52.404 51.8682 52.844C51.1132 53.0165 49.9182 52.984 49.1182 52.9765C46.6607 52.9465 44.1282 51.9915 41.8682 51.0765C34.6357 48.1465 27.8457 41.7115 24.0132 34.9765C21.8132 31.1115 20.8482 26.694 23.3907 22.7265C24.2332 21.414 24.9482 20.5915 26.3682 19.944Z"
    fill="#FDFDFD"
  />
</svg>