<svg width="19" height="19" viewBox="0 0 19 19" fill="none" xmlns="http://www.w3.org/2000/svg">
<path d="M18.7267 17.0726C18.8134 17.1593 18.8822 17.2622 18.9291 17.3755C18.976 17.4888 19.0002 17.6102 19.0002 17.7329C19.0002 17.8555 18.976 17.9769 18.9291 18.0902C18.8822 18.2035 18.8134 18.3064 18.7267 18.3932C18.6399 18.4799 18.537 18.5487 18.4237 18.5956C18.3104 18.6425 18.189 18.6667 18.0664 18.6667C17.9437 18.6667 17.8223 18.6425 17.709 18.5956C17.5957 18.5487 17.4928 18.4799 17.4061 18.3932L9.66683 10.6528L1.92759 18.3932C1.75247 18.5683 1.51496 18.6667 1.2673 18.6667C1.01964 18.6667 0.782121 18.5683 0.607 18.3932C0.431878 18.218 0.333496 17.9805 0.333496 17.7329C0.333496 17.4852 0.431878 17.2477 0.607 17.0726L8.3474 9.33333L0.607 1.5941C0.431878 1.41898 0.333496 1.18146 0.333496 0.9338C0.333496 0.686141 0.431878 0.448625 0.607 0.273504C0.782121 0.0983822 1.01964 0 1.2673 0C1.51496 0 1.75247 0.0983822 1.92759 0.273504L9.66683 8.01391L17.4061 0.273504C17.5812 0.0983822 17.8187 -4.88195e-09 18.0664 0C18.314 4.88195e-09 18.5515 0.0983822 18.7267 0.273504C18.9018 0.448625 19.0002 0.686141 19.0002 0.9338C19.0002 1.18146 18.9018 1.41898 18.7267 1.5941L10.9863 9.33333L18.7267 17.0726Z" fill="#10184D"/>
</svg>
